<svg width="24" height="30" viewBox="0 0 96 120" fill="none" xmlns="http://www.w3.org/2000/svg">
<path fill-rule="evenodd" clip-rule="evenodd" d="M49 4.9L85.8 23.2C86.7 23.6 87.1 24.5 87.1 25.4C86.1 41.8 81.9 55 75.3 65.8C68.7 76.6 59.8 84.8 49.2 91.1C48.4 91.6 47.5 91.5 46.8 91.1C36.3 84.8 27.3 76.6 20.7 65.8C14.2 54.9 9.99999 41.7 8.99999 25.3C8.89999 24.3 9.49999 23.5 10.3 23.1L47 4.9C47.6 4.5 48.4 4.6 49 4.9ZM51.7 60H44.2C43.9 60 43.7 59.9 43.4 59.9C42.2 59.5 41.6 58.2 42 57L44.4 50.2C43.2 49.6 42.1 48.6 41.4 47.5C40.6 46.3 40.1 44.8 40.1 43.3C40.1 41.1 41 39.2 42.4 37.8C43.8 36.4 45.7 35.5 47.9 35.5C50 35.5 52 36.4 53.4 37.8C54.8 39.2 55.7 41.1 55.7 43.3C55.7 44.8 55.2 46.3 54.5 47.5C53.8 48.6 52.7 49.6 51.5 50.2L53.8 56.9C53.9 57.2 54 57.5 54 57.8C54 59 53 60 51.7 60Z" fill="#AB882E"/>
</svg>
