<svg width="24" height="30" viewBox="0 0 96 120" fill="none" xmlns="http://www.w3.org/2000/svg">
<g clip-path="url(#clip0_1_8)">
<path d="M78.561 41.4195L74.9531 38.4385C73.3952 37.0834 72.8212 34.7347 73.5592 32.7473L75.2811 28.1401C76.3471 25.159 74.6252 21.9069 71.7553 21.4553L67.2454 20.8229C65.2775 20.5519 63.7196 18.8355 63.4736 16.6674L62.8996 11.699C62.4896 8.53719 59.5377 6.64014 56.8319 7.81451L52.65 9.71156C50.8461 10.5246 48.7142 9.89224 47.4842 8.17585L44.6963 4.20106C42.9744 1.67165 39.4485 1.67165 37.7266 4.20106L35.1027 8.26619C33.8728 9.98257 31.7408 10.6149 29.9369 9.8019L25.7551 7.81451C23.0492 6.64014 20.0973 8.53719 19.6873 11.699L19.1133 16.6674C18.8673 18.8355 17.3094 20.5519 15.3415 20.8229L10.8317 21.4553C7.96178 21.9069 6.23985 25.159 7.3058 28.1401L9.02774 32.7473C9.76571 34.7347 9.19173 37.0834 7.63379 38.4385L4.02593 41.5099C1.73002 43.4069 1.73002 47.2914 4.02593 49.1885L7.71579 52.1695C9.27373 53.5246 9.8477 55.8733 9.10973 57.8607L7.3058 62.4679C6.23985 65.449 7.96178 68.7011 10.8317 69.1527L15.3415 69.7851C17.3094 70.0561 18.8673 71.7725 19.1133 73.9406L19.6873 78.909C20.0973 82.0708 23.0492 83.9679 25.7551 82.7935L29.9369 80.8964C31.7408 80.0834 33.8728 80.7158 35.1027 82.4322L37.8906 86.4069C39.6125 88.9364 43.1384 88.9364 44.8603 86.4069L47.6482 82.4322C48.8782 80.7158 51.0101 80.0834 52.814 80.8964L56.9958 82.7935C59.7017 83.9679 62.6536 82.0708 63.0636 78.909L63.6376 73.9406C63.8836 71.7725 65.4415 70.0561 67.4094 69.7851L71.9193 69.1527C74.7892 68.7011 76.5111 65.449 75.4451 62.4679L73.7232 57.8607C72.9852 55.8733 73.5592 53.5246 75.1171 52.1695L78.725 49.0981C80.8569 47.2011 80.8569 43.4069 78.561 41.4195ZM55.5199 40.4258L40.6785 56.7767C39.8585 57.6801 38.7926 58.1317 37.6446 58.1317C36.4967 58.1317 35.4307 57.6801 34.6107 56.7767L27.149 48.5561C25.5091 46.7494 25.5091 43.7683 27.149 41.9616C28.789 40.1548 31.4949 40.1548 33.1348 41.9616L37.5626 46.8397L49.5341 33.8313C51.1741 32.0246 53.88 32.0246 55.5199 33.8313C57.1598 35.638 57.1598 38.6191 55.5199 40.4258Z" fill="#AB882E"/>
</g>
<defs>
<clipPath id="clip0_1_8">
<rect width="96" height="120" fill="white"/>
</clipPath>
</defs>
</svg>
