<svg width="24" height="30" viewBox="0 0 96 120" fill="none" xmlns="http://www.w3.org/2000/svg">
<g clip-path="url(#clip0_2_23)">
<path d="M24.3872 53.0942H30.2543V58.2139C30.2543 63.5379 34.1811 67.8701 39.0122 67.8701C43.8433 67.8701 47.7701 63.5405 47.7701 58.2139V53.0942H53.6372V47.7192H24.3872V53.0942V53.0942ZM42.8951 58.2139C42.8951 60.5735 41.1523 62.4951 39.0122 62.4951C36.8721 62.4951 35.1293 60.5735 35.1293 58.2139V53.0942H42.8951V58.2139Z" fill="#AB882E"/>
<path d="M32.2164 33.9539C32.2164 32.1183 31.5924 30.4574 30.5979 29.1567H35.2804V23.7817H15.5781V29.1567H20.2581C19.2636 30.4574 18.6396 32.1183 18.6396 33.9539C18.6396 38.0872 21.6791 41.4386 25.428 41.4386C29.1769 41.4386 32.2164 38.0872 32.2164 33.9539Z" fill="#AB882E"/>
<path d="M42.7196 29.1567H47.7336C46.7391 30.4574 46.1151 32.1183 46.1151 33.9539C46.1151 38.0872 49.1546 41.4386 52.9035 41.4386C56.6524 41.4386 59.692 38.0872 59.692 33.9539C59.692 32.1183 59.068 30.4574 58.0735 29.1567H62.4219V23.7817H42.7196V29.1567V29.1567Z" fill="#AB882E"/>
<path d="M67.002 0H10.998C4.9335 0 0 5.4395 0 12.126V73.8767C0 80.5605 4.9335 86 10.998 86H67.0044C73.0665 86 78 80.5605 78 73.874V12.126C78 5.4395 73.0665 0 67.002 0ZM61.2202 5.375C55.0509 8.00606 47.229 9.51375 39 9.51375C30.771 9.51375 22.9491 8.00606 16.7797 5.375H61.2202ZM16.7797 80.625C22.9491 77.9939 30.7686 76.4862 39 76.4862C47.2314 76.4862 55.0509 77.9939 61.2202 80.625H16.7797ZM73.125 73.874C73.125 76.3089 71.9379 78.4293 70.1781 79.6172C62.9094 74.2906 51.2801 71.1112 39 71.1112C26.7199 71.1112 15.0906 74.2906 7.82194 79.6172C6.06206 78.4293 4.875 76.3089 4.875 73.874V12.126C4.875 9.69113 6.06206 7.57069 7.82194 6.38281C15.0906 11.7094 26.7199 14.8887 39 14.8887C51.2801 14.8887 62.9094 11.7094 70.1781 6.38281C71.9379 7.57069 73.125 9.69113 73.125 12.126V73.874Z" fill="#AB882E"/>
</g>
<defs>
<clipPath id="clip0_2_23">
<rect width="96" height="120" fill="white"/>
</clipPath>
</defs>
</svg>
