<svg width="24" height="30" viewBox="0 0 96 120" fill="none" xmlns="http://www.w3.org/2000/svg">
<g clip-path="url(#clip0_2_19)">
<path d="M19.8416 33.2256L12.4954 19.8227L17.3929 14.4616L29.6367 22.5033V27.8645L42.2303 41.6503C42.2303 42.0333 42.2303 42.4162 42.2303 42.7992L37.6826 47.3944L24.7392 33.2256H19.8416ZM72.315 65.7756C71.2656 65.7756 70.5659 65.7756 69.5165 65.7756C67.0677 65.7756 64.9688 65.3926 62.8698 65.0097L55.5236 74.2002L71.9652 94.4961C75.8133 99.0914 82.4599 99.4743 86.3079 94.879C90.5058 90.2837 90.156 83.3908 85.9581 79.1785L72.315 65.7756ZM84.209 51.2238C89.8062 45.0968 91.5553 35.9062 89.4563 27.8645C89.1065 26.3327 87.3574 25.9498 86.6578 27.0986L74.414 40.5015L64.6189 29.7792L76.8627 16.3763C77.9122 15.2274 77.5624 13.6957 76.1631 13.3127C68.8168 10.6322 60.4211 12.5469 54.8239 19.0569C48.5271 25.9498 47.1278 36.6721 50.626 45.0968L15.6438 79.1785C11.4459 83.3908 11.0961 90.6667 15.294 94.879C19.4918 99.4743 25.7886 99.0914 29.6367 94.4961L60.7709 56.2021C68.467 60.0315 77.9122 58.4997 84.209 51.2238Z" fill="#AB882E"/>
</g>
<defs>
<clipPath id="clip0_2_19">
<rect width="96" height="120" fill="white"/>
</clipPath>
</defs>
</svg>
